<svg width="56" height="56" fill="none" xmlns="http://www.w3.org/2000/svg"><g id="logo"><g id="NICE VIEW" fill="#FCFCFB"><path d="M19.894 11.364V23h-1.363l-6.341-9.136h-.114V23h-1.409V11.364h1.364l6.363 9.159h.114v-9.16h1.386ZM24.123 11.364V23h-1.41V11.364h1.41ZM36.312 15h-1.41a2.929 2.929 0 0 0-1.187-1.84 3.182 3.182 0 0 0-.971-.478 3.88 3.88 0 0 0-1.114-.16 3.55 3.55 0 0 0-1.915.535c-.568.356-1.02.88-1.358 1.574-.333.693-.5 1.543-.5 2.55 0 1.008.167 1.859.5 2.552.338.693.79 1.218 1.358 1.574a3.55 3.55 0 0 0 1.915.534c.386 0 .758-.053 1.114-.16a3.26 3.26 0 0 0 .971-.47 2.985 2.985 0 0 0 1.188-1.847h1.409a4.695 4.695 0 0 1-.58 1.596c-.28.47-.629.87-1.045 1.2a4.58 4.58 0 0 1-1.404.744 5.233 5.233 0 0 1-1.653.255c-.992 0-1.875-.242-2.648-.727-.772-.485-1.38-1.174-1.823-2.068-.444-.894-.665-1.955-.665-3.182 0-1.227.221-2.288.665-3.182.443-.894 1.05-1.583 1.823-2.068.773-.485 1.656-.727 2.648-.727a5.23 5.23 0 0 1 1.653.255c.52.17.987.42 1.404.75.416.326.765.724 1.045 1.193.28.466.474.999.58 1.597ZM38.589 23V11.364h7.023v1.25h-5.614v3.931h5.25v1.25h-5.25v3.955h5.705V23h-7.114ZM9.988 30.364l3.455 9.795h.136l3.454-9.795h1.478L14.238 42h-1.454L8.51 30.364h1.477ZM21.732 30.364V42h-1.409V30.364h1.41ZM24.558 42V30.364h7.022v1.25h-5.613v3.931h5.25v1.25h-5.25v3.955h5.704V42h-7.113ZM36.234 42l-3.182-11.636h1.432l2.432 9.477h.113l2.477-9.477h1.591l2.478 9.477h.113l2.432-9.477h1.432L44.37 42h-1.454l-2.569-9.273h-.09L37.688 42h-1.454Z"/></g></g></svg>