<svg aria-hidden="true" style="width:0;height:0;position:absolute;overflow:hidden" xmlns="http://www.w3.org/2000/svg"><defs><symbol id="logo" viewBox="0 0 41 32"><path d="M11.996.165v12.091h-1.437L3.877 2.762h-.12v9.494H2.272V.165h1.437l6.706 9.517h.12V.165h1.461zM16.453.165v12.091h-1.485V.165h1.485zM29.298 3.944h-1.485a3.063 3.063 0 0 0-1.251-1.913c-.307-.22-.649-.386-1.024-.496s-.766-.165-1.174-.165c-.742 0-1.415.185-2.018.555-.599.37-1.076.915-1.431 1.635-.351.72-.527 1.604-.527 2.651s.176 1.931.527 2.651c.355.72.832 1.265 1.431 1.635a3.78 3.78 0 0 0 2.018.555c.407 0 .798-.055 1.174-.165s.716-.274 1.024-.49a3.077 3.077 0 0 0 1.251-1.919h1.485c-.112.618-.315 1.171-.611 1.659s-.663.903-1.102 1.246a4.853 4.853 0 0 1-1.479.773 5.589 5.589 0 0 1-1.742.266c-1.046 0-1.976-.252-2.79-.756s-1.455-1.22-1.922-2.149c-.467-.929-.701-2.031-.701-3.306s.234-2.377.701-3.306c.467-.929 1.108-1.645 1.922-2.149S23.318 0 24.364 0c.619 0 1.2.089 1.742.266.547.177 1.04.437 1.479.779.439.339.806.752 1.102 1.24.295.484.499 1.037.611 1.659zM31.697 12.257V.166h7.401v1.299h-5.916v4.086h5.533V6.85h-5.533v4.109h6.012v1.299h-7.497zM1.557 19.908l3.64 10.179h.144l3.641-10.179h1.557L6.036 32H4.503L0 19.908h1.557zM13.933 19.908V32h-1.485V19.908h1.485zM16.911 32V19.908h7.401v1.299h-5.916v4.086h5.533v1.299h-5.533v4.109h6.012V32h-7.497zM29.215 32l-3.353-12.092h1.509l2.563 9.848h.12l2.611-9.848h1.676l2.611 9.848h.12l2.563-9.848h1.509L37.791 32h-1.533l-2.706-9.635h-.096L30.75 32h-1.533z"/></symbol><symbol id="arrow-right" viewBox="0 0 17 32"><path d="M1.315.888c-.218.238-.34.558-.34.891s.122.653.34.891l12.182 13.331L1.315 29.329c-.218.238-.34.558-.34.891s.122.653.34.891c.106.116.233.208.373.271a1.075 1.075 0 0 0 .884 0c.14-.063.267-.155.373-.271L15.9 16.932c.228-.249.355-.583.355-.931s-.127-.682-.355-.931L2.945.891C2.839.775 2.712.683 2.572.62a1.075 1.075 0 0 0-.884 0c-.14.063-.267.155-.373.271V.888z"/></symbol><symbol id="arrow-left" viewBox="0 0 17 32"><path d="M16.019 31.112c.218-.238.34-.558.34-.891s-.122-.653-.34-.891L3.837 15.999 16.019 2.671c.218-.238.34-.558.34-.891s-.122-.653-.34-.891c-.106-.116-.233-.208-.373-.271a1.075 1.075 0 0 0-.884 0c-.14.063-.267.155-.373.271L1.434 15.068c-.228.249-.355.583-.355.931s.127.682.355.931l12.955 14.179c.106.116.233.208.373.271a1.075 1.075 0 0 0 .884 0c.14-.062.267-.155.373-.271v.003z"/></symbol><symbol id="send" viewBox="0 0 32 32"><path d="M30.298 15.553 1.781 1.255a.546.546 0 0 0-.774.617l2.939 12.007a.537.537 0 0 0 .355.385l5.035 1.728-5.032 1.728a.533.533 0 0 0-.351.385L1.008 30.129a.536.536 0 0 0 .041.372c.133.269.46.378.733.246l28.517-14.216a.556.556 0 0 0 .245-.242.552.552 0 0 0-.245-.736zM4.368 26.715l1.715-7.009 10.064-3.454a.273.273 0 0 0 0-.518l-10.064-3.45-1.708-6.982 21.409 10.735L4.368 26.714z"/></symbol><symbol id="close" viewBox="0 0 32 32"><path d="M28.335 31.089 16 18.735 3.665 31.089.911 28.335 13.265 16 .911 3.665 3.665.911 16 13.265 28.335.93l2.735 2.735L18.735 16 31.07 28.335l-2.735 2.754z"/></symbol><symbol id="phone" viewBox="0 0 32 32"><path d="M9.46 1.263a2.276 2.276 0 0 1 1.673.453 2.274 2.274 0 0 1 .873 1.558c.193 1.566.466 3.121.818 4.66a3.114 3.114 0 0 1-.592 2.963.816.816 0 0 1-.071.073c-.317.285-.997.986-1.824 1.838l-.48.495a20.96 20.96 0 0 0 8.854 8.862 272.485 272.485 0 0 0 2.415-2.389 3.115 3.115 0 0 1 2.963-.592c1.536.352 3.088.625 4.652.818a2.26 2.26 0 0 1 1.558.873 2.279 2.279 0 0 1 .453 1.673v6.388a1.891 1.891 0 0 1-1.755 1.784c-2.953.218-5.972-.467-8.414-1.287a35.292 35.292 0 0 1-5.15-2.213l-.02-.01-.333-.189.374-.658-.378.656A27.584 27.584 0 0 1 4.958 16.901l-.015-.028-.091-.174a.801.801 0 0 1-.061-.156 33.877 33.877 0 0 1-2.131-4.881c-.858-2.48-1.6-5.603-1.381-8.659l.001-.009a1.893 1.893 0 0 1 1.784-1.731H9.46zm6.371 24.442.002.001.319.181a33.694 33.694 0 0 0 4.913 2.11c2.351.79 5.152 1.41 7.822 1.212h.004a.374.374 0 0 0 .347-.318v-6.398c0-.039.003-.079.009-.118a.766.766 0 0 0-.148-.579.761.761 0 0 0-.522-.291l-.015-.002a47.649 47.649 0 0 1-4.846-.854.56.56 0 0 1-.07-.02 1.589 1.589 0 0 0-1.517.279c-.429.436-1.57 1.561-2.746 2.716a.756.756 0 0 1-.864.139A22.474 22.474 0 0 1 8.258 13.494a.757.757 0 0 1 .138-.862l.808-.832c.811-.836 1.529-1.577 1.903-1.919a1.588 1.588 0 0 0 .27-1.506c-.008-.023-.014-.047-.02-.07a47.782 47.782 0 0 1-.854-4.853l-.002-.014a.769.769 0 0 0-.291-.522.761.761 0 0 0-.579-.148.772.772 0 0 1-.118.009H3.107a.38.38 0 0 0-.318.339c-.197 2.764.476 5.663 1.302 8.051a32.196 32.196 0 0 0 2.095 4.771.71.71 0 0 1 .071.182l.02.038a26.074 26.074 0 0 0 9.552 9.548z"/></symbol><symbol id="facebook" viewBox="0 0 32 32"><path d="M0 16.089C0 24.044 5.777 30.658 13.333 32V20.444h-4V16h4v-3.556c0-4 2.577-6.221 6.223-6.221 1.155 0 2.4.177 3.555.355v4.089h-2.044c-1.956 0-2.4.977-2.4 2.223v3.111h4.267l-.711 4.444h-3.556v11.556C26.223 30.66 32 24.046 32 16.09 32 7.241 24.8.001 16 .001S0 7.241 0 16.09z"/></symbol><symbol id="twiter" viewBox="0 0 39 32"><path d="M24.706 4.019c-2.166 1.025-3.477 3.077-2.856 5.709a1.685 1.685 0 0 1-1.594 2.07c-5.91.158-11.843-1.89-16.2-5.597-2.26 6.301 1.621 13.693 9.187 15.756a1.685 1.685 0 0 1 .605 2.944c-1.697 1.349-3.696 2.34-5.835 2.964 5.848 1.618 11.841.585 16.573-2.217 6.225-3.687 10.126-10.328 8.787-17.934-.1-.569.099-1.15.526-1.539.335-.304.65-.646.942-1.006-.563.141-1.131.233-1.662.233-.399 0-.785-.142-1.089-.4-2.229-1.89-5.169-2.031-7.384-.983zm14.031-2.322 1.581.581-.001.002-.002.004-.005.013-.015.041a12.69 12.69 0 0 1-.255.618c-.174.4-.432.955-.772 1.583-.557 1.032-1.37 2.33-2.442 3.474 1.177 8.848-3.549 16.401-10.525 20.532-7.204 4.266-16.947 4.99-25.487-.154a1.685 1.685 0 0 1 .939-3.125c2.557.106 5.082-.371 7.256-1.348C1.084 19.889-2.588 10.34 2.091 2.517a1.684 1.684 0 0 1 2.678-.283c3.332 3.578 8.344 5.841 13.554 6.165.012-3.432 2.144-6.099 4.942-7.423 3.11-1.472 7.18-1.382 10.426 1.002.627-.119 1.472-.419 2.346-.808a23.393 23.393 0 0 0 1.732-.86l.102-.057.024-.013.004-.002z"/></symbol><symbol id="insta" viewBox="0 0 32 32"><path d="M9.404.096C11.11.017 11.654 0 16 0s4.89.019 6.595.096 2.868.349 3.887.743a7.88 7.88 0 0 1 2.833 1.847 7.803 7.803 0 0 1 1.844 2.832c.396 1.018.666 2.182.745 3.884.079 1.709.096 2.253.096 6.598 0 4.346-.019 4.89-.096 6.596-.077 1.702-.349 2.865-.745 3.884a7.85 7.85 0 0 1-1.844 2.835 7.832 7.832 0 0 1-2.833 1.844c-1.018.396-2.182.666-3.884.745C20.89 31.983 20.346 32 16 32s-4.89-.019-6.596-.096c-1.702-.077-2.865-.349-3.884-.745a7.85 7.85 0 0 1-2.835-1.844 7.846 7.846 0 0 1-1.846-2.833C.445 25.464.174 24.3.096 22.598.017 20.889 0 20.345 0 16c0-4.346.019-4.89.096-6.595s.349-2.868.743-3.887a7.854 7.854 0 0 1 1.847-2.833A7.843 7.843 0 0 1 5.518.839C6.536.445 7.7.174 9.402.096h.001zm13.061 2.88c-1.687-.077-2.193-.093-6.465-.093s-4.778.016-6.465.093c-1.561.071-2.407.332-2.972.551a4.972 4.972 0 0 0-1.84 1.196 4.966 4.966 0 0 0-1.196 1.84c-.22.564-.48 1.411-.551 2.972-.077 1.687-.093 2.193-.093 6.465s.016 4.778.093 6.465c.071 1.561.332 2.407.551 2.972a4.962 4.962 0 0 0 1.196 1.84c.516.531 1.146.94 1.84 1.196.564.22 1.411.48 2.972.551 1.687.077 2.192.093 6.465.093s4.778-.016 6.465-.093c1.561-.071 2.407-.332 2.972-.551a4.972 4.972 0 0 0 1.84-1.196 4.962 4.962 0 0 0 1.196-1.84c.22-.564.48-1.411.551-2.972.077-1.687.093-2.193.093-6.465s-.016-4.778-.093-6.465c-.071-1.561-.332-2.407-.551-2.972a4.972 4.972 0 0 0-1.196-1.84 4.974 4.974 0 0 0-1.84-1.196c-.564-.22-1.411-.48-2.972-.551zm-8.509 17.956a5.335 5.335 0 0 0 6.488-1.962 5.342 5.342 0 0 0-2.646-7.995 5.34 5.34 0 0 0-7.078 4.243 5.334 5.334 0 0 0 3.236 5.714zm-3.771-10.747A8.232 8.232 0 0 1 16 7.776a8.23 8.23 0 0 1 7.598 5.077 8.21 8.21 0 0 1 0 6.294 8.225 8.225 0 1 1-13.413-8.962zm15.863-1.184a1.958 1.958 0 0 0 .611-1.386 1.953 1.953 0 0 0-.569-1.403 1.948 1.948 0 0 0-1.403-.569 1.945 1.945 0 1 0 1.363 3.36z"/></symbol><symbol id="youtube" viewBox="0 0 43 32"><path d="M39.178 2.017C38.023 1.151 34.805 0 21.322 0 6.873 0 4.729 1.322 4.041 1.754.38 4.047.032 14.197 0 16.255c.044 2.718.466 11.762 4.038 14C4.725 30.686 6.856 32 21.322 32c13.492 0 16.706-1.145 17.856-2.008 3.121-2.34 3.48-10.398 3.488-13.772-.008-2.713-.281-11.795-3.488-14.203zm-1.555 25.722c-.464.348-3.129 1.485-16.301 1.485-12.734 0-15.406-1.03-15.91-1.347-1.285-.804-2.642-5.071-2.748-11.628.105-6.543 1.48-11.319 2.751-12.114.506-.319 3.188-1.357 15.908-1.357 13.161 0 15.833 1.144 16.301 1.494 1.141.857 2.362 5.366 2.38 11.958-.018 6.696-1.247 10.66-2.38 11.51zm-7.615-12.831L18.024 7.243a1.287 1.287 0 0 0-1.343-.02c-.206.121-.377.297-.496.509s-.182.454-.182.7v15.334c0 .368.141.721.39.981s.588.407.942.407c.242 0 .48-.069.688-.199l11.985-7.668c.4-.252.644-.702.644-1.189s-.244-.938-.643-1.189zm-11.34 6.398V10.89l8.075 5.207-8.075 5.209z"/></symbol><symbol id="email" viewBox="0 0 32 32"><path d="M10.781 9.256a8.536 8.536 0 0 1 13.765 6.712l.001.032a8.549 8.549 0 0 1-4.529 7.546 8.543 8.543 0 0 1-12.426-8.975 8.543 8.543 0 0 1 3.189-5.315zm12.432 6.773L23.212 16a7.207 7.207 0 0 0-11.616-5.691 7.205 7.205 0 0 0 7.794 12.057 7.208 7.208 0 0 0 3.411-3.965 7.218 7.218 0 0 0 .411-2.374zm3.429 9.595a.668.668 0 0 1 .004.943c-.342.345-.699.672-1.072.981a.667.667 0 1 1-.851-1.027c.34-.282.665-.58.977-.894a.668.668 0 0 1 .943-.004z"/><path d="M11.856 1.559A14.992 14.992 0 0 1 25.034 4 15.004 15.004 0 0 1 31 16.001a.667.667 0 0 1-1.333-.003A13.67 13.67 0 0 0 18.49 2.536 13.671 13.671 0 0 0 6.755 5.909a13.66 13.66 0 0 0-4.354 11.408 13.665 13.665 0 0 0 2.033 5.934c.087.138.12.303.094.463l-.739 4.497 4.497-.739a.666.666 0 0 1 .463.094 13.627 13.627 0 0 0 12.572 1.024.667.667 0 0 1 .518 1.228 14.965 14.965 0 0 1-13.585-.991l-5.167.849a.664.664 0 0 1-.765-.766l.849-5.167a14.993 14.993 0 0 1-1.183-13.12 15.008 15.008 0 0 1 9.87-9.067z"/><path d="M25.531 21.892c-.555-.126-1.118-.444-1.44-.918-.297-.437-.454-1.099-.045-2.097a.666.666 0 1 0-1.234-.506c-.554 1.35-.408 2.494.175 3.352.558.822 1.454 1.289 2.247 1.469 2.21.502 5.764-1.735 5.764-7.192a.667.667 0 0 0-.667-.667zm4.802-6.559a.667.667 0 0 0-.667.667zm-.667.667c0 4.934-3.056 6.137-4.135 5.892z"/></symbol><symbol id="location" viewBox="0 0 23 32"><path d="M3.501 4.461a11.505 11.505 0 0 1 19.642 8.136c0 3.367-1.364 6.307-3.393 9.175-1.562 2.208-3.561 4.429-5.69 6.794-.618.686-1.246 1.385-1.879 2.099a.727.727 0 0 1-1.089 0c-.616-.696-1.229-1.378-1.831-2.048-2.031-2.26-3.945-4.39-5.478-6.496-1.997-2.745-3.418-5.539-3.65-8.684l-.002-.054v-.785c0-3.051 1.212-5.978 3.37-8.136zm8.135-1.916A10.05 10.05 0 0 0 1.585 12.596v.758c.21 2.75 1.457 5.275 3.373 7.909 1.484 2.04 3.328 4.092 5.348 6.34l1.33 1.483c.468-.524.929-1.037 1.381-1.539 2.116-2.352 4.037-4.486 5.544-6.617 1.941-2.743 3.126-5.389 3.126-8.335A10.05 10.05 0 0 0 11.636 2.544zm0 5.6a4.458 4.458 0 1 0 .003 8.917 4.458 4.458 0 0 0-.004-8.918zm-4.178.275a5.913 5.913 0 1 1 8.355 8.37A5.913 5.913 0 0 1 7.459 8.42z"/></symbol><symbol id="menu" viewBox="0 0 36 32"><path d="M0 0h36v4H0V0zm0 14h36v4H0v-4zm0 14h36v4H0v-4z"/></symbol><symbol id="start" viewBox="0 0 32 32"><path d="m15.499 1.808.005.011-.005-.011zM16 2.871l-.999 2.118a1.066 1.066 0 0 1-.822.638l-2.372.362 1.747 1.783c.238.243.346.584.291.919l-.402 2.454 2.043-1.124c.32-.176.708-.176 1.028 0l2.043 1.124-.402-2.454a1.066 1.066 0 0 1 .291-.919l1.748-1.784-2.372-.363a1.065 1.065 0 0 1-.803-.599L16.001 2.87zm4.886 2.411-.002.002zm-4.389-3.463.005-.011-.005.011zM15.137.256a1.585 1.585 0 0 1 2.304.67l1.264 2.677 2.811.43c1.355.208 1.77 1.851.892 2.744l-.001.001-2.059 2.101.489 2.983c.196 1.208-1.062 2.388-2.334 1.687l-2.502-1.377-2.502 1.377c-1.264.694-2.53-.472-2.334-1.687l.489-2.983L9.597 6.78l-.002-.002c-.884-.897-.46-2.537.889-2.745l2.814-.429L14.561.926c.125-.274.326-.507.578-.671zm-3.048 16.81h7.822v12.801h-7.822V17.066zm9.955 6.993v-7.064a2.061 2.061 0 0 0-2.062-2.062h-7.964a2.06 2.06 0 0 0-2.062 2.062v3.745H2.063a2.061 2.061 0 0 0-2.062 2.062v7.135a2.061 2.061 0 0 0 2.062 2.062h27.876a2.061 2.061 0 0 0 2.062-2.062V26.12a2.061 2.061 0 0 0-2.062-2.062h-7.893zM9.956 22.874v6.993H2.134v-6.993h7.822zm12.088 6.993v-3.674h7.822v3.674h-7.822z"/></symbol><symbol id="graph" viewBox="0 0 32 32"><path d="M3.111 1.778a1.333 1.333 0 0 0-2.666 0v28c0 .736.597 1.333 1.333 1.333h28a1.333 1.333 0 0 0 0-2.666H3.111v-4.214l12.637-11.847 4.337 4.337a1.334 1.334 0 0 0 1.886 0l7.875-7.875A1.333 1.333 0 1 0 27.96 6.96l-6.932 6.932-4.307-4.307a1.334 1.334 0 0 0-1.855-.03L3.111 20.575V1.778z"/></symbol><symbol id="suitcase" viewBox="0 0 37 32"><path d="M13.128 2.462h10.667v4.103H13.128V2.462zM5.333 9.026h26.256a2.052 2.052 0 0 1 2.052 2.051v16.41a2.048 2.048 0 0 1-2.052 2.051H5.333a2.048 2.048 0 0 1-2.051-2.051v-16.41a2.048 2.048 0 0 1 2.051-2.051zm20.923-2.462V2.215A2.215 2.215 0 0 0 24.04-.001H12.881a2.219 2.219 0 0 0-2.215 2.216v4.349H5.333A4.515 4.515 0 0 0 .82 11.077v16.41A4.515 4.515 0 0 0 5.333 32h26.256a4.515 4.515 0 0 0 4.513-4.513v-16.41a4.515 4.515 0 0 0-4.513-4.513h-5.333z"/></symbol><symbol id="home" viewBox="0 0 35 32"><path d="M16.638.64a1.333 1.333 0 0 1 1.391 0l16 9.778a1.332 1.332 0 0 1-.695 2.471h-32a1.334 1.334 0 0 1-.696-2.471l16-9.778zM6.072 10.222h22.522L17.333 3.34 6.072 10.222zm-1.183 6.223c.736 0 1.333.597 1.333 1.333v11.111h22.222V17.778a1.333 1.333 0 0 1 2.666 0v11.378a2.4 2.4 0 0 1-2.4 2.4H5.954a2.4 2.4 0 0 1-2.4-2.4V17.778c0-.736.597-1.333 1.333-1.333z"/></symbol><symbol id="search" viewBox="0 0 32 32"><path d="M.508 14.102c0 7.589 6.216 13.714 13.85 13.714 3.272 0 6.283-1.125 8.656-3.009l5.679 5.616a1.524 1.524 0 0 0 2.143-2.167l-5.657-5.594a13.568 13.568 0 0 0 3.029-8.56c0-7.59-6.218-13.714-13.851-13.714C6.724.388.509 6.513.509 14.102zm21.637 7.392a1.631 1.631 0 0 0-.291.287 10.833 10.833 0 0 1-7.497 2.987c-5.983 0-10.802-4.792-10.802-10.667S8.375 3.434 14.356 3.434c5.983 0 10.804 4.792 10.804 10.667a10.57 10.57 0 0 1-3.015 7.392z"/></symbol></defs></svg>