<svg aria-hidden="true" style="width:0;height:0;position:absolute;overflow:hidden" xmlns="http://www.w3.org/2000/svg"><defs><symbol id="icon-map" viewBox="0 0 32 32"><path stroke-linejoin="round" stroke-linecap="round" stroke-width="1.333" d="M16 3a9.88 9.88 0 0 0-9.88 9.88v.72c.4 5.413 4.893 9.767 9.88 15.4 5.207-5.88 9.88-10.333 9.88-16.12A9.88 9.88 0 0 0 16 3zm0 5.133a4.763 4.763 0 0 1 4.392 2.936 4.749 4.749 0 0 1-1.034 5.181 4.758 4.758 0 0 1-7.314-.728A4.753 4.753 0 0 1 16 8.132z"/></symbol><symbol id="icon-email" viewBox="0 0 32 32"><path stroke-linejoin="round" stroke-linecap="round" stroke-width="1.333" d="M25.148 27.035c.356-.296.698-.608 1.025-.937M23.879 16a7.874 7.874 0 0 0-7.21-7.837 7.871 7.871 0 1 0 7.212 7.838h-.001z"/><path stroke-linejoin="round" stroke-linecap="round" stroke-width="1.333" d="M30.333 16a14.323 14.323 0 0 0-5.702-11.467A14.33 14.33 0 0 0 12.039 2.2 14.33 14.33 0 0 0 1.735 17.385a14.32 14.32 0 0 0 2.132 6.224l-.889 5.413 5.413-.889a14.3 14.3 0 0 0 13.187 1.075"/><path stroke-linejoin="round" stroke-linecap="round" stroke-width="1.333" d="M23.43 18.624c-.963 2.348.605 3.611 1.953 3.918 1.645.373 4.95-1.346 4.95-6.542"/></symbol><symbol id="icon-phone" viewBox="0 0 32 32"><path stroke-linejoin="round" stroke-linecap="round" stroke-width="1.333" d="M27.147 20.187a41.182 41.182 0 0 1-4.2-.74 2.073 2.073 0 0 0-2 .387c-.353.36-1.373 1.367-2.433 2.407a19.126 19.126 0 0 1-8.733-8.74c1.033-1.06 2-2.073 2.393-2.427a2.079 2.079 0 0 0 .387-2 41.364 41.364 0 0 1-.74-4.207 1.321 1.321 0 0 0-.996-1.155 1.331 1.331 0 0 0-.537-.025h-5.68a1.001 1.001 0 0 0-.907.913c-.367 5.127 2.493 10.613 3.073 11.667v.04l.08.153a23.624 23.624 0 0 0 8.667 8.667l.293.167c1.333.707 6.633 3.373 11.587 3.007a.999.999 0 0 0 .927-.907v-5.673a1.317 1.317 0 0 0-.667-1.371 1.346 1.346 0 0 0-.513-.162z"/></symbol><symbol id="icon-facebook" viewBox="0 0 32 32"><path d="M0 16.089C0 24.044 5.777 30.658 13.333 32V20.444h-4V16h4v-3.556c0-4 2.577-6.221 6.223-6.221 1.155 0 2.4.177 3.555.355v4.089h-2.044c-1.956 0-2.4.977-2.4 2.223v3.111h4.267l-.711 4.444h-3.556v11.556C26.223 30.66 32 24.046 32 16.09 32 7.241 24.8.001 16 .001S0 7.241 0 16.09z"/></symbol><symbol id="icon-twitter" viewBox="0 0 32 32"><path stroke-linejoin="round" stroke-linecap="round" stroke-width="2.667" d="M32 5.344s-1.027 2.799-2.933 4.531c2.347 13.327-13.787 23.056-26.4 15.459 3.227.133 6.453-.8 8.8-2.665-7.333-1.999-11-9.862-7.333-15.992 3.227 3.465 8.213 5.464 13.2 5.331-1.32-5.597 5.867-8.796 10.267-5.064 1.613 0 4.4-1.599 4.4-1.599z"/></symbol><symbol id="icon-instagram" viewBox="0 0 32 32"><path d="M9.953 1.421c1.564-.072 2.063-.088 6.047-.088s4.483.017 6.045.088c1.563.071 2.629.32 3.563.681a7.218 7.218 0 0 1 2.597 1.693 7.158 7.158 0 0 1 1.691 2.596c.363.933.611 2 .683 3.56.072 1.567.088 2.065.088 6.048 0 3.984-.017 4.483-.088 6.047-.071 1.56-.32 2.627-.683 3.56a7.19 7.19 0 0 1-1.691 2.599 7.187 7.187 0 0 1-2.597 1.691c-.933.363-2 .611-3.56.683-1.565.072-2.064.088-6.048.088s-4.483-.017-6.047-.088c-1.56-.071-2.627-.32-3.56-.683a7.19 7.19 0 0 1-2.599-1.691 7.185 7.185 0 0 1-1.692-2.597c-.361-.933-.609-2-.681-3.56-.072-1.567-.088-2.065-.088-6.048 0-3.984.017-4.483.088-6.045s.32-2.629.681-3.563a7.192 7.192 0 0 1 1.693-2.597 7.195 7.195 0 0 1 2.596-1.692c.933-.361 2-.609 3.56-.681h.001zm11.974 2.64C20.38 3.99 19.916 3.976 16 3.976s-4.38.015-5.927.085c-1.431.065-2.207.304-2.724.505a4.57 4.57 0 0 0-1.687 1.096 4.543 4.543 0 0 0-1.096 1.687c-.201.517-.44 1.293-.505 2.724-.071 1.547-.085 2.011-.085 5.927s.015 4.38.085 5.927c.065 1.431.304 2.207.505 2.724a4.56 4.56 0 0 0 1.096 1.687 4.551 4.551 0 0 0 1.687 1.096c.517.201 1.293.44 2.724.505 1.547.071 2.009.085 5.927.085s4.38-.015 5.927-.085c1.431-.065 2.207-.304 2.724-.505a4.57 4.57 0 0 0 1.687-1.096 4.551 4.551 0 0 0 1.096-1.687c.201-.517.44-1.293.505-2.724.071-1.547.085-2.011.085-5.927s-.015-4.38-.085-5.927c-.065-1.431-.304-2.207-.505-2.724a4.57 4.57 0 0 0-1.096-1.687 4.543 4.543 0 0 0-1.687-1.096c-.517-.201-1.293-.44-2.724-.505zm-7.8 16.46a4.895 4.895 0 0 0 6.749-5 4.891 4.891 0 0 0-1.415-2.981 4.887 4.887 0 0 0-3.94-1.408 4.897 4.897 0 0 0-4.204 6.289 4.898 4.898 0 0 0 2.808 3.101zm-3.458-9.852a7.538 7.538 0 1 1 10.66 10.661 7.538 7.538 0 0 1-10.66-10.661zm14.542-1.085a1.785 1.785 0 0 0-.553-2.948 1.772 1.772 0 0 0-1.967.428 1.781 1.781 0 0 0 1.271 3.006c.464.007.912-.167 1.249-.486z"/></symbol><symbol id="icon-youtube" viewBox="0 0 32 32"><path d="M29.384 5.513C28.518 4.863 26.105 4 15.992 4 5.155 4 3.547 4.991 3.031 5.316.285 7.036.024 14.648 0 16.192c.033 2.039.349 8.822 3.029 10.5.515.323 2.114 1.309 12.963 1.309 10.119 0 12.53-.859 13.392-1.506 2.341-1.755 2.61-7.799 2.616-10.329-.006-2.035-.211-8.846-2.616-10.652zm-1.167 19.291c-.348.261-2.347 1.114-12.226 1.114-9.55 0-11.554-.773-11.933-1.011-.964-.603-1.981-3.803-2.061-8.721.079-4.907 1.11-8.49 2.063-9.085.38-.239 2.391-1.018 11.931-1.018 9.871 0 11.875.858 12.225 1.12.856.642 1.772 4.024 1.785 8.969-.013 5.022-.936 7.995-1.785 8.632zm-5.711-9.623-8.988-5.749a.967.967 0 0 0-1.007-.015c-.154.091-.283.222-.372.382s-.136.341-.137.525v11.5c0 .276.105.541.293.736s.441.305.706.305c.182 0 .36-.052.516-.149l8.989-5.751c.3-.189.483-.527.483-.892s-.183-.704-.482-.892zm-8.505 4.798v-7.812l6.056 3.906-6.056 3.907z"/></symbol><symbol id="icon-Frame" viewBox="0 0 32 32"><path stroke-linejoin="round" stroke-linecap="round" stroke-width="2" d="M20.667 30h-9.333m9.333 0V16.933a.934.934 0 0 0-.933-.933h-7.467a.932.932 0 0 0-.933.933V30m9.333 0h8.4a.934.934 0 0 0 .933-.933v-3.578a.932.932 0 0 0-.933-.933H21.6a.934.934 0 0 0-.933.933V30zm-9.334 0v-7.623a.932.932 0 0 0-.933-.933H2.933a.932.932 0 0 0-.933.933v6.689a.932.932 0 0 0 .933.933h8.4zm2.81-24.714 1.414-2.998A.48.48 0 0 1 16 2a.483.483 0 0 1 .443.288l1.416 2.998 3.161.484c.406.062.568.585.274.884l-2.287 2.333.54 3.295c.068.423-.355.747-.719.546L16 11.272l-2.828 1.556c-.362.199-.787-.123-.719-.546l.54-3.295-2.287-2.333c-.296-.299-.132-.821.272-.884l3.164-.484z"/></symbol><symbol id="icon-home" viewBox="0 0 32 32"><path stroke-linejoin="round" stroke-linecap="round" stroke-width="2" d="M25.333 17.333v8.533a.8.8 0 0 1-.8.8H7.466a.8.8 0 0 1-.8-.8v-8.533M4 12.667l12-7.333 12 7.333H4z"/></symbol><symbol id="icon-iconoirgraph" viewBox="0 0 32 32"><path stroke-linejoin="round" stroke-linecap="round" stroke-width="2" d="M25.333 26.333h-21v-21"/><path stroke-linejoin="round" stroke-linecap="round" stroke-width="2" d="m4.333 21.74 10.5-9.844 3.937 3.938 5.906-5.906"/></symbol><symbol id="icon-Vector" viewBox="0 0 32 32"><path stroke-width="2.133" d="M10.311 8.889h11.378m-11.378 0H4.622a2.845 2.845 0 0 0-2.844 2.844v14.222a2.845 2.845 0 0 0 2.844 2.844h22.756a2.845 2.845 0 0 0 2.844-2.844V11.733a2.845 2.845 0 0 0-2.844-2.844H10.311zm0 0V4.053a.853.853 0 0 1 .853-.853h9.671a.853.853 0 0 1 .853.853v4.836H10.31z"/></symbol></defs></svg>