<svg width="56" height="56" viewBox="0 0 56 56" fill="none" xmlns="http://www.w3.org/2000/svg">
<g id="Frame 42">
<g id="NICE VIEW">
<path d="M19.8943 11.3637V23H18.5306L12.1897 13.8637H12.0761V23H10.667V11.3637H12.0306L18.3943 20.5228H18.5079V11.3637H19.8943Z" fill="#FCFCFB"/>
<path d="M24.123 11.3637V23H22.7139V11.3637H24.123Z" fill="#FCFCFB"/>
<path d="M36.3119 15H34.9028C34.8195 14.5947 34.6736 14.2387 34.4653 13.9319C34.2607 13.625 34.0107 13.3675 33.7153 13.1591C33.4236 12.947 33.0998 12.7879 32.7437 12.6819C32.3876 12.5758 32.0164 12.5228 31.6301 12.5228C30.9255 12.5228 30.2873 12.7008 29.7153 13.0569C29.1471 13.4129 28.6945 13.9375 28.3573 14.6307C28.024 15.3239 27.8573 16.1743 27.8573 17.1819C27.8573 18.1894 28.024 19.0398 28.3573 19.733C28.6945 20.4262 29.1471 20.9508 29.7153 21.3069C30.2873 21.6629 30.9255 21.841 31.6301 21.841C32.0164 21.841 32.3876 21.7879 32.7437 21.6819C33.0998 21.5758 33.4236 21.4186 33.7153 21.2103C34.0107 20.9982 34.2607 20.7387 34.4653 20.4319C34.6736 20.1213 34.8195 19.7652 34.9028 19.3637H36.3119C36.2058 19.9584 36.0126 20.4906 35.7323 20.9603C35.452 21.43 35.1035 21.8296 34.6869 22.1591C34.2702 22.4849 33.8024 22.733 33.2835 22.9035C32.7683 23.0739 32.2172 23.1591 31.6301 23.1591C30.6376 23.1591 29.7551 22.9167 28.9823 22.4319C28.2096 21.947 27.6017 21.2576 27.1585 20.3637C26.7153 19.4697 26.4937 18.4091 26.4937 17.1819C26.4937 15.9546 26.7153 14.894 27.1585 14C27.6017 13.1061 28.2096 12.4167 28.9823 11.9319C29.7551 11.447 30.6376 11.2046 31.6301 11.2046C32.2172 11.2046 32.7683 11.2898 33.2835 11.4603C33.8024 11.6307 34.2702 11.8807 34.6869 12.2103C35.1035 12.536 35.452 12.9338 35.7323 13.4035C36.0126 13.8694 36.2058 14.4016 36.3119 15Z" fill="#FCFCFB"/>
<path d="M38.5889 23V11.3637H45.6116V12.6137H39.998V16.5455H45.248V17.7955H39.998V21.75H45.7025V23H38.5889Z" fill="#FCFCFB"/>
<path d="M9.98801 30.3637L13.4426 40.1591H13.5789L17.0335 30.3637H18.5107L14.238 42H12.7835L8.51074 30.3637H9.98801Z" fill="#FCFCFB"/>
<path d="M21.7323 30.3637V42H20.3232V30.3637H21.7323Z" fill="#FCFCFB"/>
<path d="M24.5576 42V30.3637H31.5803V31.6137H25.9667V35.5455H31.2167V36.7955H25.9667V40.75H31.6713V42H24.5576Z" fill="#FCFCFB"/>
<path d="M36.2338 42L33.0519 30.3637H34.4838L36.9156 39.841H37.0292L39.5065 30.3637H41.0974L43.5747 39.841H43.6883L46.1201 30.3637H47.5519L44.3701 42H42.9156L40.3474 32.7273H40.2565L37.6883 42H36.2338Z" fill="#FCFCFB"/>
</g>
</g>
</svg>
