<svg aria-hidden="true" style="position: absolute; width: 0; height: 0; overflow: hidden;" version="1.1" xmlns="http://www.w3.org/2000/svg" xmlns:xlink="http://www.w3.org/1999/xlink">
<defs>
<symbol id="arrow-right" viewBox="0 0 17 32">
<path d="M1.315 0.888c-0.218 0.238-0.34 0.558-0.34 0.891s0.122 0.653 0.34 0.891l12.182 13.331-12.182 13.328c-0.218 0.238-0.34 0.558-0.34 0.891s0.122 0.653 0.34 0.891c0.106 0.116 0.233 0.208 0.373 0.271s0.29 0.095 0.442 0.095 0.302-0.033 0.442-0.095c0.14-0.063 0.267-0.155 0.373-0.271l12.955-14.179c0.228-0.249 0.355-0.583 0.355-0.931s-0.127-0.682-0.355-0.931l-12.955-14.179c-0.106-0.116-0.233-0.208-0.373-0.271s-0.29-0.095-0.442-0.095c-0.152 0-0.302 0.032-0.442 0.095s-0.267 0.155-0.373 0.271v-0.003z"></path>
</symbol>
<symbol id="arrow-left" viewBox="0 0 17 32">
<path d="M16.019 31.112c0.218-0.238 0.34-0.558 0.34-0.891s-0.122-0.653-0.34-0.891l-12.182-13.331 12.182-13.328c0.218-0.238 0.34-0.558 0.34-0.891s-0.122-0.653-0.34-0.891c-0.106-0.116-0.233-0.208-0.373-0.271s-0.29-0.095-0.442-0.095c-0.152 0-0.302 0.032-0.442 0.095s-0.267 0.155-0.373 0.271l-12.955 14.179c-0.228 0.249-0.355 0.583-0.355 0.931s0.127 0.682 0.355 0.931l12.955 14.179c0.106 0.116 0.233 0.208 0.373 0.271s0.29 0.095 0.442 0.095c0.152 0 0.302-0.033 0.442-0.095s0.267-0.155 0.373-0.271v0.003z"></path>
</symbol>
<symbol id="send" viewBox="0 0 32 32">
<path d="M30.298 15.553l-28.517-14.298c-0.116-0.058-0.249-0.072-0.375-0.041-0.29 0.072-0.47 0.365-0.399 0.658l2.939 12.007c0.044 0.181 0.177 0.327 0.355 0.385l5.035 1.728-5.032 1.728c-0.177 0.061-0.31 0.204-0.351 0.385l-2.945 12.024c-0.031 0.126-0.017 0.259 0.041 0.372 0.133 0.269 0.46 0.378 0.733 0.246l28.517-14.216c0.106-0.051 0.191-0.14 0.245-0.242 0.133-0.273 0.024-0.6-0.245-0.736zM4.368 26.715l1.715-7.009 10.064-3.454c0.078-0.027 0.143-0.089 0.17-0.17 0.048-0.143-0.027-0.297-0.17-0.348l-10.064-3.45-1.708-6.982 21.409 10.735-21.416 10.677z"></path>
</symbol>
<symbol id="close" viewBox="0 0 32 32">
<path d="M28.335 31.089l-12.335-12.354-12.335 12.354-2.754-2.754 12.354-12.335-12.354-12.335 2.754-2.754 12.335 12.354 12.335-12.335 2.735 2.735-12.335 12.335 12.335 12.335-2.735 2.754z"></path>
</symbol>
<symbol id="phone" viewBox="0 0 32 32">
<path d="M9.46 1.263c0.284-0.036 0.572-0.019 0.85 0.052 0.299 0.076 0.579 0.213 0.823 0.401s0.448 0.424 0.598 0.693c0.149 0.267 0.242 0.561 0.275 0.865 0.193 1.566 0.466 3.121 0.818 4.66 0.159 0.497 0.191 1.026 0.092 1.539-0.102 0.526-0.337 1.016-0.684 1.424-0.022 0.026-0.046 0.050-0.071 0.073-0.317 0.285-0.997 0.986-1.824 1.838-0.155 0.16-0.316 0.326-0.48 0.495 1.979 3.787 5.068 6.88 8.854 8.862 1.058-1.039 2.012-1.983 2.365-2.342 0.016-0.016 0.033-0.032 0.050-0.047 0.408-0.347 0.899-0.582 1.424-0.684 0.513-0.099 1.042-0.068 1.539 0.092 1.536 0.352 3.088 0.625 4.652 0.818 0.304 0.032 0.598 0.126 0.865 0.275 0.269 0.15 0.505 0.354 0.693 0.598s0.324 0.524 0.401 0.823c0.071 0.278 0.089 0.566 0.052 0.85v6.388c0 0.023-0.001 0.046-0.003 0.069-0.041 0.448-0.24 0.866-0.561 1.18s-0.743 0.504-1.191 0.535c-2.953 0.218-5.972-0.467-8.414-1.287-2.451-0.824-4.374-1.802-5.15-2.213l-0.020-0.010 0-0-0.333-0.189 0.374-0.658-0.378 0.656c-4.204-2.424-7.694-5.914-10.118-10.118-0.005-0.009-0.010-0.019-0.015-0.028l-0.091-0.174c-0.026-0.050-0.046-0.102-0.061-0.156-0.393-0.725-1.322-2.542-2.131-4.881-0.858-2.48-1.6-5.603-1.381-8.659l0.001-0.009h0c0.037-0.444 0.229-0.861 0.543-1.177s0.729-0.511 1.173-0.551c0.023-0.002 0.045-0.003 0.068-0.003h6.396zM15.831 25.705c0.001 0 0.001 0.001 0.002 0.001l0.319 0.181c0.745 0.394 2.581 1.327 4.913 2.11 2.351 0.79 5.152 1.41 7.822 1.212l0.004-0c0.090-0.006 0.174-0.044 0.238-0.107 0.058-0.057 0.096-0.131 0.109-0.211v-6.398c0-0.039 0.003-0.079 0.009-0.118 0.016-0.101 0.011-0.205-0.014-0.305s-0.071-0.193-0.134-0.274c-0.063-0.081-0.141-0.149-0.231-0.199s-0.189-0.081-0.291-0.092l-0.015-0.002v-0c-1.629-0.201-3.246-0.486-4.846-0.854-0.024-0.005-0.047-0.012-0.070-0.020-0.261-0.087-0.54-0.106-0.809-0.053-0.26 0.050-0.503 0.164-0.708 0.332-0.429 0.436-1.57 1.561-2.746 2.716-0.229 0.225-0.576 0.281-0.864 0.139-4.462-2.194-8.071-5.805-10.261-10.269-0.141-0.287-0.086-0.633 0.138-0.862 0.273-0.28 0.546-0.561 0.808-0.832 0.811-0.836 1.529-1.577 1.903-1.919 0.163-0.202 0.274-0.442 0.323-0.697 0.052-0.27 0.034-0.549-0.053-0.809-0.008-0.023-0.014-0.047-0.020-0.070-0.368-1.602-0.653-3.222-0.854-4.853l-0.002-0.014h0c-0.011-0.102-0.042-0.201-0.092-0.291s-0.118-0.168-0.199-0.231c-0.081-0.063-0.175-0.108-0.274-0.134s-0.203-0.030-0.305-0.014c-0.039 0.006-0.078 0.009-0.118 0.009h-6.406c-0.079 0.012-0.153 0.050-0.21 0.107-0.062 0.062-0.1 0.145-0.108 0.232-0.197 2.764 0.476 5.663 1.302 8.051 0.823 2.38 1.779 4.196 2.095 4.771 0.032 0.057 0.056 0.119 0.071 0.182l0.020 0.038c2.29 3.966 5.585 7.26 9.552 9.548z"></path>
</symbol>
<symbol id="facebook" viewBox="0 0 32 32">
<path d="M0 16.089c0 7.955 5.777 14.569 13.333 15.911v-11.556h-4v-4.444h4v-3.556c0-4 2.577-6.221 6.223-6.221 1.155 0 2.4 0.177 3.555 0.355v4.089h-2.044c-1.956 0-2.4 0.977-2.4 2.223v3.111h4.267l-0.711 4.444h-3.556v11.556c7.556-1.341 13.333-7.955 13.333-15.911 0-8.849-7.2-16.089-16-16.089s-16 7.24-16 16.089z"></path>
</symbol>
<symbol id="twiter" viewBox="0 0 39 32">
<path d="M24.706 4.019c-2.166 1.025-3.477 3.077-2.856 5.709 0.116 0.493 0.004 1.013-0.305 1.414s-0.783 0.642-1.289 0.656c-5.91 0.158-11.843-1.89-16.2-5.597-2.26 6.301 1.621 13.693 9.187 15.756 0.612 0.167 1.079 0.664 1.207 1.286s-0.105 1.262-0.602 1.658c-1.697 1.349-3.696 2.34-5.835 2.964 5.848 1.618 11.841 0.585 16.573-2.217 6.225-3.687 10.126-10.328 8.787-17.934-0.1-0.569 0.099-1.15 0.526-1.539 0.335-0.304 0.65-0.646 0.942-1.006-0.563 0.141-1.131 0.233-1.662 0.233-0.399 0-0.785-0.142-1.089-0.4-2.229-1.89-5.169-2.031-7.384-0.983zM38.737 1.697c1.581 0.58 1.581 0.58 1.581 0.581l-0.001 0.002-0.002 0.004-0.005 0.013-0.015 0.041c-0.013 0.034-0.031 0.080-0.054 0.138-0.046 0.116-0.113 0.279-0.201 0.48-0.174 0.4-0.432 0.955-0.772 1.583-0.557 1.032-1.37 2.33-2.442 3.474 1.177 8.848-3.549 16.401-10.525 20.532-7.204 4.266-16.947 4.99-25.487-0.154-0.659-0.397-0.965-1.19-0.744-1.927s0.914-1.23 1.683-1.198c2.557 0.106 5.082-0.371 7.256-1.348-7.925-4.029-11.597-13.578-6.918-21.401 0.272-0.454 0.742-0.755 1.268-0.81s1.049 0.14 1.41 0.527c3.332 3.578 8.344 5.841 13.554 6.165 0.012-3.432 2.144-6.099 4.942-7.423 3.11-1.472 7.18-1.382 10.426 1.002 0.627-0.119 1.472-0.419 2.346-0.808 0.527-0.234 0.997-0.47 1.337-0.648 0.169-0.088 0.304-0.162 0.395-0.212 0.045-0.025 0.080-0.044 0.102-0.057l0.024-0.013 0.004-0.002z"></path>
</symbol>
<symbol id="insta" viewBox="0 0 32 32">
<path d="M9.404 0.096c1.706-0.079 2.25-0.096 6.596-0.096s4.89 0.019 6.595 0.096c1.705 0.077 2.868 0.349 3.887 0.743 1.066 0.403 2.033 1.033 2.833 1.847 0.815 0.799 1.443 1.764 1.844 2.832 0.396 1.018 0.666 2.182 0.745 3.884 0.079 1.709 0.096 2.253 0.096 6.598 0 4.346-0.019 4.89-0.096 6.596-0.077 1.702-0.349 2.865-0.745 3.884-0.401 1.068-1.031 2.035-1.844 2.835-0.8 0.815-1.767 1.443-2.833 1.844-1.018 0.396-2.182 0.666-3.884 0.745-1.708 0.079-2.252 0.096-6.598 0.096s-4.89-0.019-6.596-0.096c-1.702-0.077-2.865-0.349-3.884-0.745-1.068-0.401-2.035-1.031-2.835-1.844-0.814-0.799-1.444-1.766-1.846-2.833-0.394-1.018-0.665-2.182-0.743-3.884-0.079-1.709-0.096-2.253-0.096-6.598 0-4.346 0.019-4.89 0.096-6.595s0.349-2.868 0.743-3.887c0.403-1.068 1.033-2.034 1.847-2.833 0.799-0.814 1.765-1.444 2.832-1.846 1.018-0.394 2.182-0.665 3.884-0.743h0.001zM22.465 2.976c-1.687-0.077-2.193-0.093-6.465-0.093s-4.778 0.016-6.465 0.093c-1.561 0.071-2.407 0.332-2.972 0.551-0.746 0.291-1.28 0.636-1.84 1.196-0.531 0.516-0.939 1.145-1.196 1.84-0.22 0.564-0.48 1.411-0.551 2.972-0.077 1.687-0.093 2.193-0.093 6.465s0.016 4.778 0.093 6.465c0.071 1.561 0.332 2.407 0.551 2.972 0.256 0.694 0.665 1.324 1.196 1.84 0.516 0.531 1.146 0.94 1.84 1.196 0.564 0.22 1.411 0.48 2.972 0.551 1.687 0.077 2.192 0.093 6.465 0.093s4.778-0.016 6.465-0.093c1.561-0.071 2.407-0.332 2.972-0.551 0.746-0.291 1.28-0.636 1.84-1.196 0.531-0.516 0.94-1.146 1.196-1.84 0.22-0.564 0.48-1.411 0.551-2.972 0.077-1.687 0.093-2.193 0.093-6.465s-0.016-4.778-0.093-6.465c-0.071-1.561-0.332-2.407-0.551-2.972-0.291-0.746-0.636-1.28-1.196-1.84-0.517-0.531-1.145-0.939-1.84-1.196-0.564-0.22-1.411-0.48-2.972-0.551zM13.956 20.932c1.141 0.475 2.412 0.539 3.595 0.181s2.206-1.115 2.893-2.143c0.687-1.028 0.996-2.262 0.873-3.492s-0.668-2.38-1.543-3.252c-0.558-0.558-1.233-0.985-1.976-1.251s-1.536-0.363-2.321-0.286-1.544 0.328-2.221 0.734c-0.677 0.406-1.255 0.957-1.694 1.613s-0.726 1.401-0.842 2.182c-0.116 0.78-0.057 1.577 0.172 2.332s0.622 1.45 1.152 2.035c0.53 0.585 1.183 1.045 1.912 1.347zM10.185 10.185c0.764-0.764 1.67-1.369 2.668-1.783s2.067-0.626 3.147-0.626c1.080 0 2.149 0.213 3.147 0.626s1.904 1.019 2.668 1.783c0.764 0.764 1.369 1.67 1.783 2.668s0.626 2.067 0.626 3.147-0.213 2.149-0.626 3.147c-0.413 0.998-1.019 1.904-1.783 2.668-1.542 1.542-3.634 2.409-5.815 2.409s-4.273-0.866-5.815-2.409-2.409-3.634-2.409-5.815c0-2.181 0.866-4.273 2.409-5.815zM26.048 9.001c0.189-0.179 0.341-0.393 0.446-0.631s0.161-0.495 0.165-0.755c0.004-0.26-0.045-0.518-0.142-0.759s-0.243-0.46-0.427-0.644c-0.184-0.184-0.403-0.329-0.644-0.427s-0.499-0.146-0.759-0.142c-0.26 0.004-0.517 0.060-0.755 0.165s-0.453 0.256-0.631 0.446c-0.347 0.368-0.537 0.857-0.53 1.363s0.212 0.989 0.569 1.347c0.358 0.358 0.841 0.562 1.347 0.569s0.995-0.183 1.363-0.53z"></path>
</symbol>
<symbol id="youtube" viewBox="0 0 43 32">
<path d="M39.178 2.017c-1.155-0.866-4.373-2.017-17.856-2.017-14.449 0-16.593 1.322-17.281 1.754-3.661 2.293-4.009 12.443-4.041 14.501 0.044 2.718 0.466 11.762 4.038 14 0.687 0.431 2.818 1.745 17.284 1.745 13.492 0 16.706-1.145 17.856-2.008 3.121-2.34 3.48-10.398 3.488-13.772-0.008-2.713-0.281-11.795-3.488-14.203l-0-0zM37.623 27.739c-0.464 0.348-3.129 1.485-16.301 1.485-12.734 0-15.406-1.030-15.91-1.347-1.285-0.804-2.642-5.071-2.748-11.628 0.105-6.543 1.48-11.319 2.751-12.114 0.506-0.319 3.188-1.357 15.908-1.357 13.161 0 15.833 1.144 16.301 1.494 1.141 0.857 2.362 5.366 2.38 11.958-0.018 6.696-1.247 10.66-2.38 11.51h0zM30.008 14.908l-11.984-7.665c-0.202-0.127-0.433-0.196-0.669-0.199s-0.468 0.058-0.674 0.179c-0.206 0.121-0.377 0.297-0.496 0.509s-0.182 0.454-0.182 0.7v15.334c0 0.368 0.141 0.721 0.39 0.981s0.588 0.407 0.942 0.407c0.242 0 0.48-0.069 0.688-0.199l11.985-7.668c0.4-0.252 0.644-0.702 0.644-1.189s-0.244-0.938-0.643-1.189h-0zM18.668 21.306v-10.416l8.075 5.207-8.075 5.209z"></path>
</symbol>
<symbol id="email" viewBox="0 0 32 32">
<path d="M10.781 9.256c1.691-1.309 3.813-1.936 5.944-1.757s4.118 1.153 5.566 2.727c1.441 1.566 2.245 3.614 2.255 5.742 0.001 0.011 0.001 0.021 0.001 0.032 0 0.97-0.164 1.932-0.487 2.847-0.711 2.017-2.154 3.694-4.042 4.699s-4.085 1.264-6.155 0.726c-2.070-0.538-3.864-1.833-5.025-3.629s-1.606-3.963-1.246-6.072c0.36-2.108 1.498-4.005 3.189-5.315zM23.213 16.029c-0-0.009-0.001-0.019-0.001-0.029-0.002-1.805-0.681-3.544-1.903-4.872s-2.898-2.149-4.697-2.301c-1.799-0.152-3.589 0.377-5.016 1.482s-2.388 2.705-2.691 4.485c-0.304 1.779 0.072 3.608 1.051 5.123s2.493 2.609 4.24 3.062c1.747 0.454 3.601 0.235 5.194-0.613s2.811-2.263 3.411-3.965v-0c0.269-0.763 0.408-1.565 0.411-2.374zM26.642 25.624c0.261 0.259 0.263 0.681 0.004 0.943-0.342 0.345-0.699 0.672-1.072 0.981-0.283 0.235-0.704 0.196-0.939-0.088s-0.196-0.704 0.088-0.939c0.34-0.282 0.665-0.58 0.977-0.894 0.259-0.261 0.681-0.263 0.943-0.004z"></path>
<path d="M11.856 1.559c2.235-0.643 4.59-0.757 6.877-0.333s4.444 1.373 6.301 2.774c1.857 1.401 3.362 3.214 4.398 5.297s1.572 4.378 1.568 6.704c-0.001 0.368-0.3 0.666-0.668 0.665s-0.666-0.3-0.665-0.668c0.004-2.119-0.486-4.21-1.429-6.108s-2.315-3.55-4.007-4.826c-1.692-1.276-3.657-2.142-5.741-2.528s-4.229-0.282-6.265 0.303c-2.037 0.586-3.909 1.637-5.47 3.070s-2.766 3.211-3.522 5.191c-0.756 1.98-1.041 4.108-0.832 6.217s0.904 4.141 2.033 5.934c0.087 0.138 0.12 0.303 0.094 0.463l-0.739 4.497 4.497-0.739c0.161-0.026 0.326 0.007 0.463 0.094 1.858 1.171 3.972 1.875 6.16 2.053s4.388-0.175 6.412-1.029c0.339-0.143 0.73 0.016 0.873 0.355s-0.016 0.73-0.355 0.873c-2.221 0.938-4.636 1.325-7.039 1.129-2.318-0.189-4.559-0.915-6.546-2.12l-5.167 0.849c-0.212 0.035-0.428-0.035-0.579-0.187s-0.221-0.367-0.186-0.579l0.849-5.167c-1.16-1.915-1.877-4.066-2.097-6.296-0.229-2.315 0.084-4.651 0.914-6.824s2.153-4.123 3.866-5.697c1.713-1.574 3.768-2.727 6.004-3.37z"></path>
<path d="M25.531 21.892c-0.555-0.126-1.118-0.444-1.44-0.918-0.297-0.437-0.454-1.099-0.045-2.097 0.14-0.341-0.023-0.73-0.364-0.87s-0.73 0.023-0.87 0.364c-0.554 1.35-0.408 2.494 0.175 3.352 0.558 0.822 1.454 1.289 2.247 1.469h0c2.21 0.502 5.764-1.735 5.764-7.192 0-0.368-0.299-0.667-0.667-0.667zM30.333 15.333c-0.368 0-0.667 0.299-0.667 0.667zM29.666 16c0 4.934-3.056 6.137-4.135 5.892z"></path>
</symbol>
<symbol id="location" viewBox="0 0 23 32">
<path d="M3.501 4.461c2.158-2.158 5.084-3.37 8.136-3.37s5.978 1.212 8.136 3.37 3.37 5.084 3.37 8.136c0 3.367-1.364 6.307-3.393 9.175-1.562 2.208-3.561 4.429-5.69 6.794-0.618 0.686-1.246 1.385-1.879 2.099-0.138 0.156-0.336 0.245-0.545 0.245s-0.406-0.089-0.544-0.245c-0.616-0.696-1.229-1.378-1.831-2.048-2.031-2.26-3.945-4.39-5.478-6.496-1.997-2.745-3.418-5.539-3.65-8.684-0.001-0.018-0.002-0.036-0.002-0.054v-0.785c0-3.051 1.212-5.978 3.37-8.136zM11.636 2.545c-2.666 0-5.222 1.059-7.107 2.944s-2.944 4.441-2.944 7.107v0.758c0.21 2.75 1.457 5.275 3.373 7.909 1.484 2.040 3.328 4.092 5.348 6.34 0.436 0.485 0.879 0.979 1.33 1.483 0.468-0.524 0.929-1.037 1.381-1.539 2.116-2.352 4.037-4.486 5.544-6.617 1.941-2.743 3.126-5.389 3.126-8.335 0-2.666-1.059-5.222-2.944-7.107s-4.441-2.944-7.107-2.944zM11.636 8.145c-1.181 0-2.314 0.469-3.15 1.304s-1.306 1.967-1.308 3.148c-0.001 0.882 0.259 1.745 0.748 2.479s1.185 1.306 1.999 1.645c0.815 0.338 1.711 0.427 2.576 0.256s1.66-0.595 2.284-1.219c0.624-0.623 1.049-1.418 1.222-2.283s0.084-1.762-0.253-2.577c-0.337-0.815-0.909-1.512-1.642-2.002s-1.595-0.752-2.477-0.752zM7.458 8.42c1.109-1.107 2.611-1.729 4.178-1.729 1.17 0 2.313 0.347 3.286 0.997s1.73 1.574 2.178 2.655 0.564 2.27 0.335 3.417c-0.229 1.147-0.793 2.201-1.62 3.027s-1.882 1.389-3.030 1.616-2.337 0.109-3.417-0.34c-1.080-0.449-2.003-1.208-2.652-2.181s-0.994-2.117-0.992-3.287c0.002-1.567 0.626-3.069 1.735-4.176z"></path>
</symbol>
<symbol id="menu" viewBox="0 0 36 32">
<path d="M0 0h36v4h-36v-4zM0 14h36v4h-36v-4zM0 28h36v4h-36v-4z"></path>
</symbol>
<symbol id="start" viewBox="0 0 32 32">
<path d="M15.499 1.808c0.002 0.004 0.003 0.007 0.005 0.011l-0.005-0.011zM16 2.871l-0.999 2.118c-0.141 0.332-0.446 0.581-0.822 0.638l-2.372 0.362 1.747 1.783c0.238 0.243 0.346 0.584 0.291 0.919l-0.402 2.454 2.043-1.124c0.32-0.176 0.708-0.176 1.028 0l2.043 1.124-0.402-2.454c-0.055-0.335 0.053-0.676 0.291-0.919l1.748-1.784-2.372-0.363c-0.351-0.054-0.652-0.278-0.803-0.599l-1.018-2.156zM20.886 5.282c-0.001 0.001-0.001 0.001-0.002 0.002zM16.497 1.819c0.002-0.004 0.003-0.007 0.005-0.011l-0.005 0.011zM15.137 0.256c0.257-0.167 0.557-0.256 0.863-0.256s0.606 0.089 0.863 0.256c0.253 0.164 0.453 0.397 0.578 0.67l1.264 2.677 2.811 0.43c1.355 0.208 1.77 1.851 0.892 2.744-0 0-0.001 0.001-0.001 0.001l-2.059 2.101 0.489 2.983c0.196 1.208-1.062 2.388-2.334 1.687l-2.502-1.377-2.502 1.377c-1.264 0.694-2.53-0.472-2.334-1.687l0.489-2.983-2.057-2.099c-0.001-0.001-0.001-0.001-0.002-0.002-0.884-0.897-0.46-2.537 0.889-2.745l2.814-0.429 1.263-2.678c0.125-0.274 0.326-0.507 0.578-0.671zM12.089 17.066h7.822v12.801h-7.822v-12.801zM22.044 24.059v-7.064c0-0.547-0.217-1.071-0.604-1.458s-0.911-0.604-1.458-0.604h-7.964c-0.547 0-1.072 0.217-1.458 0.604s-0.604 0.911-0.604 1.458v3.745h-7.893c-0.547 0-1.071 0.217-1.458 0.604s-0.604 0.911-0.604 1.458v7.135c0 0.547 0.217 1.071 0.604 1.458s0.911 0.604 1.458 0.604h27.876c0.547 0 1.071-0.217 1.458-0.604s0.604-0.911 0.604-1.458v-3.817c0-0.547-0.217-1.071-0.604-1.458s-0.911-0.604-1.458-0.604h-7.893zM9.956 22.874v6.993h-7.822v-6.993h7.822zM22.044 29.867v-3.674h7.822v3.674h-7.822z"></path>
</symbol>
<symbol id="graph" viewBox="0 0 32 32">
<path d="M3.111 1.778c0-0.736-0.597-1.333-1.333-1.333s-1.333 0.597-1.333 1.333v28c0 0.736 0.597 1.333 1.333 1.333h28c0.736 0 1.333-0.597 1.333-1.333s-0.597-1.333-1.333-1.333h-26.667v-4.214l12.637-11.847 4.337 4.337c0.25 0.25 0.589 0.391 0.943 0.391s0.693-0.141 0.943-0.391l7.875-7.875c0.521-0.521 0.521-1.365 0-1.886s-1.365-0.521-1.886 0l-6.932 6.932-4.307-4.307c-0.509-0.509-1.33-0.522-1.855-0.030l-11.755 11.020v-18.797z"></path>
</symbol>
<symbol id="suitcase" viewBox="0 0 37 32">
<path d="M13.128 2.462h10.667v4.103h-10.667v-4.103zM5.333 9.026h26.256c0.544 0 1.066 0.216 1.451 0.601s0.601 0.906 0.601 1.45v16.41c0 0.544-0.216 1.066-0.601 1.45s-0.906 0.601-1.451 0.601h-26.256c-0.544 0-1.066-0.216-1.45-0.601s-0.601-0.906-0.601-1.45v-16.41c0-0.544 0.216-1.066 0.601-1.45s0.906-0.601 1.45-0.601zM26.256 6.564v-4.349c0-0.588-0.233-1.151-0.649-1.567s-0.979-0.649-1.567-0.649h-11.159c-0.588 0-1.151 0.233-1.566 0.649s-0.649 0.979-0.649 1.567v4.349h-5.333c-1.197 0-2.345 0.475-3.191 1.322s-1.322 1.994-1.322 3.191v16.41c0 1.197 0.475 2.345 1.322 3.191s1.994 1.322 3.191 1.322h26.256c1.197 0 2.345-0.475 3.191-1.322s1.322-1.994 1.322-3.191v-16.41c0-1.197-0.475-2.345-1.322-3.191s-1.994-1.322-3.191-1.322h-5.333z"></path>
</symbol>
<symbol id="home" viewBox="0 0 35 32">
<path d="M16.638 0.64c0.427-0.261 0.964-0.261 1.391 0l16 9.778c0.51 0.311 0.75 0.924 0.588 1.499s-0.686 0.972-1.283 0.972h-32c-0.597 0-1.122-0.397-1.284-0.972s0.079-1.187 0.588-1.499l16-9.778zM6.072 10.222h22.522l-11.261-6.882-11.261 6.882zM4.889 16.445c0.736 0 1.333 0.597 1.333 1.333v11.111h22.222v-11.111c0-0.736 0.597-1.333 1.333-1.333s1.333 0.597 1.333 1.333v11.378c0 0.637-0.253 1.247-0.703 1.697s-1.061 0.703-1.697 0.703h-22.756c-0.637 0-1.247-0.253-1.697-0.703s-0.703-1.061-0.703-1.697v-11.378c0-0.736 0.597-1.333 1.333-1.333z"></path>
</symbol>
<symbol id="search" viewBox="0 0 32 32">
<path d="M0.508 14.102c0 7.589 6.216 13.714 13.85 13.714 3.272 0 6.283-1.125 8.656-3.009l5.679 5.616c0.598 0.592 1.563 0.586 2.155-0.012s0.586-1.563-0.012-2.155l-5.657-5.594c1.894-2.344 3.029-5.318 3.029-8.56 0-7.59-6.218-13.714-13.851-13.714-7.633 0-13.848 6.125-13.848 13.714zM22.145 21.494c-0.058 0.044-0.114 0.093-0.167 0.146-0.045 0.045-0.086 0.092-0.124 0.141-1.94 1.848-4.581 2.987-7.497 2.987-5.983 0-10.802-4.792-10.802-10.667s4.82-10.667 10.801-10.667c5.983 0 10.804 4.792 10.804 10.667 0 2.865-1.147 5.472-3.015 7.392z"></path>
</symbol>
</defs>
</svg>
